PathFileType	4	(X/Y/Z)	S15T1V11.trc
DataRate	CameraRate	NumFrames	NumMarkers	Units	OrigDataRate	OrigDataStartFrame	OrigNumFrames
200	200	7	39	mm	200	1	99
Frame#	Time	LSHO			RSHO			LICST			RICST			LASIS			RASIS			LTROC			RTROC			SACR			LTH1			LTH2			LTH3			LTH4			RTH1			RTH2			RTH3			RTH4			LLEP			RLEP			LSK1			LSK2			LSK3			LSK4			RSK1			RSK2			RSK3			RSK4			LLME			RLME			LTOE			LHM5			LHEEL			RTOE			RHM5			RHEEL			RFT1			RFT2			LFT1			LFT2		
		X1	Y1	Z1	X2	Y2	Z2	X3	Y3	Z3	X4	Y4	Z4	X5	Y5	Z5	X6	Y6	Z6	X7	Y7	Z7	X8	Y8	Z8	X9	Y9	Z9	X10	Y10	Z10	X11	Y11	Z11	X12	Y12	Z12	X13	Y13	Z13	X14	Y14	Z14	X15	Y15	Z15	X16	Y16	Z16	X17	Y17	Z17	X18	Y18	Z18	X19	Y19	Z19	X20	Y20	Z20	X21	Y21	Z21	X22	Y22	Z22	X23	Y23	Z23	X24	Y24	Z24	X25	Y25	Z25	X26	Y26	Z26	X27	Y27	Z27	X28	Y28	Z28	X29	Y29	Z29	X30	Y30	Z30	X31	Y31	Z31	X32	Y32	Z32	X33	Y33	Z33	X34	Y34	Z34	X35	Y35	Z35	X36	Y36	Z36	X37	Y37	Z37	X38	Y38	Z38	X39	Y39	Z39

1	0.000000	-284.095009	1423.613679	-437.686653	-347.099206	1433.391048	-119.037235	-284.546334	1015.958458	-420.776972	-293.427221	1036.673291	-106.945869	-246.563007	953.198694	-406.343171	-242.462239	987.700554	-126.489841	-388.505221	939.012316	-397.796701	-340.660310	922.904600	-93.355383	-399.001237	1025.773136	-266.520663	-354.015803	693.832339	-421.068265	-433.933009	716.554499	-402.005516	-384.475271	597.462253	-408.480346	-457.905759	616.145066	-388.985856	-163.284026	748.695354	-105.284655	-234.316087	713.117628	-103.520633	-118.063444	661.849624	-118.572721	-188.475473	624.422074	-116.287104	-469.018741	497.833593	-389.644168	-122.262039	527.783046	-116.598283	-503.842179	394.370033	-384.619981	-569.738315	442.248560	-368.989625	-562.924860	313.693596	-364.626672	-623.201099	362.701976	-344.045682	-97.155587	420.309978	-130.395678	-170.839914	433.819677	-101.513343	-110.923832	322.495956	-140.821558	-191.444446	332.342842	-113.402084	-677.069463	186.689900	-322.153026	-193.638633	149.854547	-143.065277	-568.066148	64.510864	-292.610300	-628.493592	74.574120	-344.113866	-731.222166	207.101871	-253.372519	-14.267879	122.726229	-171.416395	-71.480906	101.174752	-112.239959	-247.643163	134.580094	-201.243236	-230.395457	104.268678	-231.128965	-246.416977	106.013822	-176.407999	-731.538368	183.420488	-223.648917	-752.154943	183.125491	-273.912950
2	0.005000	-267.411112	1427.407225	-436.488169	-331.856368	1435.603306	-118.635171	-267.146120	1018.923608	-420.417697	-276.105499	1039.657296	-107.053420	-229.503941	955.900805	-406.285303	-225.252682	990.520292	-126.616018	-371.774270	942.485376	-397.443590	-323.202486	925.744042	-93.049702	-381.599733	1028.490523	-266.187894	-340.453153	697.524571	-421.145179	-420.012761	721.517013	-401.813693	-372.414705	601.617579	-408.692620	-445.590113	621.468551	-388.848853	-146.961530	750.668984	-104.856265	-218.153097	715.478946	-103.460219	-102.174398	663.645120	-118.240479	-172.741645	626.589546	-116.180827	-458.873775	503.427518	-389.941054	-105.778503	529.492046	-116.660222	-494.679085	400.198434	-385.554496	-560.098946	448.446928	-369.039795	-554.275998	319.750273	-365.908552	-614.061841	369.077558	-344.407651	-76.500796	422.943146	-130.827726	-150.707642	433.223415	-101.549512	-86.183840	324.495945	-141.492551	-167.113379	330.848108	-113.877168	-669.080516	192.999384	-323.519333	-161.293242	147.888579	-144.351671	-564.621988	64.877172	-293.733201	-624.518756	77.379140	-345.085617	-721.438518	215.760505	-255.023745	18.731085	128.037581	-174.476188	-36.894531	103.320095	-115.117685	-215.042353	131.067777	-202.236396	-196.835814	101.933395	-232.682905	-212.442230	102.186806	-177.679896	-722.787587	192.253131	-225.064942	-743.509786	192.475815	-275.349074
3	0.010000	-250.825696	1430.937044	-435.291685	-316.455327	1437.632775	-118.175326	-249.820885	1021.767308	-420.089830	-258.778224	1042.327024	-107.157879	-212.463507	958.519277	-406.283897	-208.024242	993.032376	-126.753798	-355.041588	945.803122	-397.175249	-305.804099	928.255656	-92.851958	-364.223572	1031.001604	-265.859911	-326.514312	701.058931	-421.286091	-405.719954	726.194024	-401.682150	-359.832835	605.595590	-408.994389	-432.746851	626.500713	-388.785535	-130.792543	752.273891	-104.301065	-202.167351	717.512889	-103.375447	-86.472716	665.044945	-117.756502	-157.220229	628.403799	-116.035613	-448.053466	508.785001	-390.322207	-89.511869	530.874780	-116.689609	-484.930671	405.843607	-386.524226	-549.811814	454.537256	-369.149812	-545.135134	325.720643	-367.183983	-604.364393	375.428552	-344.802584	-56.244040	425.366354	-131.178866	-130.866109	432.529560	-101.603789	-61.976547	326.456378	-142.081429	-143.201449	329.441053	-114.369553	-660.746366	199.427762	-324.857688	-129.593891	146.266020	-145.604154	-560.799813	65.577137	-294.915043	-620.152648	80.554958	-346.073617	-711.296808	224.475541	-256.609763	50.852877	133.601110	-177.300572	-3.147858	105.778620	-117.847927	-183.019338	127.928288	-203.251354	-163.887467	100.001804	-234.235434	-179.065411	98.774772	-178.970057	-713.639764	201.150227	-226.432994	-734.445435	201.910719	-276.746151
4	0.015000	-234.335334	1434.190464	-434.102840	-300.906220	1439.472285	-117.657206	-232.570962	1024.468601	-419.795122	-241.454643	1044.674555	-107.255452	-195.442324	961.033502	-406.332608	-190.782407	995.234089	-126.897639	-338.305787	948.939168	-396.998607	-288.473043	930.433880	-92.759023	-346.877240	1033.294385	-265.543775	-312.198357	704.396052	-421.482638	-391.060240	730.543345	-401.605713	-346.726363	609.349879	-409.376416	-419.379386	631.192421	-388.791008	-114.763215	753.518612	-103.631596	-186.339921	719.219320	-103.274574	-70.934154	666.064015	-117.139804	-141.882077	629.870963	-115.867243	-436.552712	513.851784	-390.784607	-73.438260	531.940373	-116.702437	-474.597255	411.257994	-387.521106	-538.870793	460.476506	-369.319718	-535.506338	331.567246	-368.441545	-594.107200	381.721764	-345.227417	-36.379689	427.565949	-131.460990	-111.321717	431.744009	-101.693862	-38.320447	328.350009	-142.596356	-119.740577	328.114790	-114.890468	-652.075928	205.955203	-326.155620	-98.619210	144.952679	-146.823485	-556.575611	66.637244	-296.148821	-615.375054	84.105049	-347.072777	-700.824185	233.203286	-258.115021	82.044542	139.337949	-179.871884	29.681051	108.486957	-120.413700	-151.656688	125.134555	-204.292039	-131.631938	98.434377	-235.784858	-146.380109	95.748051	-180.281729	-704.115255	210.064581	-227.739197	-724.982033	211.379658	-278.089203
5	0.020000	-217.936069	1437.156940	-432.927077	-285.220147	1441.115106	-117.081190	-215.394525	1027.007117	-419.534330	-224.143736	1046.694967	-107.342019	-178.439884	963.423119	-406.423584	-173.532463	997.125592	-127.041281	-321.564606	951.868106	-396.919247	-271.215667	932.276153	-92.766231	-329.564247	1035.358145	-265.246200	-297.507190	707.499194	-421.726857	-376.041780	734.526378	-401.579510	-333.095871	612.837236	-409.830005	-405.494801	635.498601	-388.860836	-98.858572	754.414489	-102.862595	-170.650731	720.601199	-103.165650	-55.534119	666.719966	-116.411673	-126.697649	631.000174	-115.690981	-424.371320	518.577826	-391.325811	-57.534438	532.699700	-116.713999	-463.682233	416.397756	-388.538214	-527.273746	466.223769	-369.550407	-525.394731	337.254798	-369.671421	-583.290809	387.924876	-345.679994	-16.900397	429.528983	-131.687092	-92.079757	430.871504	-101.835645	-15.230353	330.148438	-143.047245	-96.759671	326.859250	-115.450238	-643.076076	212.560819	-327.401691	-68.442595	143.909300	-148.011967	-551.926314	68.077689	-297.426765	-610.166717	88.026631	-348.078057	-690.045159	241.901443	-259.525803	112.259612	145.161895	-182.178236	61.520263	111.375516	-122.802000	-121.032680	122.655352	-205.362949	-100.147037	97.186435	-237.330490	-114.476060	93.072593	-181.618482	-694.232954	218.950297	-228.971086	-715.138814	220.833299	-279.364298
6	0.025000	-201.623463	1439.827832	-431.769585	-269.408869	1442.554803	-116.448505	-198.287918	1029.363248	-419.307189	-206.854125	1048.386112	-107.413214	-161.454761	965.668203	-406.547703	-156.279486	998.709576	-127.177905	-304.815164	954.565804	-396.941109	-254.036655	933.782631	-92.867453	-312.287209	1037.183347	-264.973300	-282.445505	710.334706	-422.011521	-360.675097	738.108567	-401.599232	-318.945769	616.018202	-410.347400	-391.103652	639.378776	-388.991346	-83.062644	754.975158	-102.010696	-155.078801	721.664158	-103.056327	-40.247896	667.032498	-115.595172	-111.637364	631.803008	-115.521196	-411.513875	522.917931	-391.944131	-41.777857	533.164894	-116.738554	-452.191795	421.223273	-389.570019	-515.022367	471.740679	-369.843659	-514.806125	342.750497	-370.865672	-571.917584	394.006652	-346.159158	2.202953	431.243207	-131.871034	-73.143952	429.915427	-102.042823	7.282881	331.822503	-143.445566	-74.283925	325.661360	-116.057896	-633.751137	219.222676	-328.585795	-39.131097	143.092442	-149.173240	-546.830086	69.911552	-298.740580	-604.509474	92.310479	-349.084591	-678.980559	250.529652	-260.830560	141.458710	150.980920	-184.213910	92.305121	114.369850	-125.004092	-91.220253	120.456150	-206.468814	-69.505959	96.209194	-238.872416	-83.437903	90.710902	-182.983807	-684.009325	227.763450	-230.117927	-704.933087	230.224283	-280.558901
7	0.030000	-185.392651	1442.196161	-430.635242	-253.484490	1443.785103	-115.761175	-181.246015	1031.518325	-419.112412	-189.593965	1049.748342	-107.464522	-144.484856	967.749444	-406.694855	-139.028341	999.990897	-127.300319	-288.054238	957.009687	-397.066211	-236.938962	934.955882	-93.055187	-295.047970	1038.761571	-264.730328	-267.020697	712.872404	-422.330435	-344.972896	741.259773	-401.661344	-304.284173	618.857541	-410.922107	-376.219725	642.797503	-389.179876	-67.358609	755.216025	-101.094077	-139.602504	722.416059	-102.953682	-25.050886	667.022719	-114.714600	-96.671939	632.292925	-115.371009	-397.989532	526.832250	-392.638744	-26.146685	533.348883	-116.789046	-440.134607	425.699535	-390.612563	-502.121949	476.991742	-370.202112	-503.746668	348.024266	-372.018454	-559.991418	399.937095	-346.664798	20.941255	432.697109	-132.027284	-54.516059	428.877687	-102.326472	29.212527	333.342724	-143.804113	-52.334244	324.505364	-116.720849	-624.102473	225.917830	-329.699429	-10.744473	142.455489	-150.312051	-541.266568	72.144156	-300.081706	-598.386361	96.940903	-350.087820	-667.646609	259.049945	-262.020166	169.609975	156.698915	-185.979552	121.979203	117.392187	-127.015702	-62.286091	118.500045	-207.614287	-39.776476	95.450922	-240.411258	-53.344030	88.623038	-184.380778	-673.457523	236.462655	-231.170971	-694.379290	239.507880	-281.662180
